<svg xmlns="http://www.w3.org/2000/svg" xmlns:xlink="http://www.w3.org/1999/xlink" version="1.1" width="411.43246" height="157.64785" viewBox="0,0,411.43246,157.64785"><defs><linearGradient x1="143.35271" y1="112.54001" x2="73.34336" y2="209.04674" gradientUnits="userSpaceOnUse" id="color-1"><stop offset="0" stop-color="#bde7ff"/><stop offset="1" stop-color="#7aceff"/></linearGradient><linearGradient x1="61.91374" y1="225.86628" x2="41.47075" y2="254.04661" gradientUnits="userSpaceOnUse" id="color-2"><stop offset="0" stop-color="#bde7ff"/><stop offset="1" stop-color="#7aceff"/></linearGradient><linearGradient x1="170.46069" y1="227.32528" x2="150.0177" y2="255.50562" gradientUnits="userSpaceOnUse" id="color-3"><stop offset="0" stop-color="#bde7ff"/><stop offset="1" stop-color="#7aceff"/></linearGradient></defs><g transform="translate(-34.28377,-101.17607)"><g data-paper-data="{&quot;isPaintingLayer&quot;:true}" fill-rule="nonzero" stroke-linejoin="miter" stroke-miterlimit="10" stroke-dasharray="" stroke-dashoffset="0" style="mix-blend-mode: normal"><path d="M60.09467,125.7887c19.33254,-26.6496 56.60845,-32.58123 83.25804,-13.2487c26.6496,19.33255 32.58123,56.60844 13.2487,83.25804c-19.33255,26.6496 -56.60844,32.58123 -83.25804,13.2487c-26.6496,-19.33255 -32.58123,-56.60844 -13.2487,-83.25804z" fill="url(#color-1)" stroke="none" stroke-width="0.5" stroke-linecap="butt"/><path d="M37.60208,229.73495c5.64518,-7.78179 16.52988,-9.51386 24.31167,-3.86867c7.78178,5.64518 9.51383,16.52988 3.86866,24.31167c-5.64518,7.78179 -16.52988,9.51384 -24.31165,3.86867c-7.78178,-5.64519 -9.51385,-16.52988 -3.86867,-24.31166z" fill="url(#color-2)" stroke="none" stroke-width="0.5" stroke-linecap="butt"/><path d="M146.14902,231.19395c5.64518,-7.78179 16.52988,-9.51386 24.31167,-3.86867c7.78179,5.64518 9.51385,16.52989 3.86867,24.31167c-5.64518,7.78178 -16.52988,9.51383 -24.31167,3.86866c-7.78179,-5.64517 -9.51385,-16.52987 -3.86866,-24.31165z" fill="url(#color-3)" stroke="none" stroke-width="0.5" stroke-linecap="butt"/><path d="M118.4664,132.33709v20.85368" fill="none" stroke="#003e90" stroke-width="7" stroke-linecap="round"/><path d="M97.19064,152.99488v-20.85367" fill="none" stroke="#003e90" stroke-width="7" stroke-linecap="round"/><path d="M122.78344,168.82936c0.83142,-0.03647 1.17863,0.46563 0.80834,1.30961c-1.52898,3.48492 -6.94026,12.3738 -22.22569,11.87702c-11.08961,-0.36041 -12.6724,-9.89089 -12.83639,-14.01883c-0.04557,-1.14711 0.73529,-1.58587 2.11857,-1.18919c1.52186,0.43643 3.85039,1.0006 6.91843,1.44538c1.61301,0.23385 6.92613,0.60947 8.20631,0.7048c4.74681,0.35348 13.65715,0.01836 17.01043,-0.12877z" fill="#003e90" stroke="#003e90" stroke-width="2" stroke-linecap="round"/><g stroke="none" stroke-width="1" stroke-linecap="square"><g fill="#9edbff"><path d="M192.18555,169.16619c-1.32265,0 -2.31809,-0.22971 -2.98637,-0.68916c-0.66828,-0.45944 -1.09292,-1.07205 -1.27391,-1.83778c-0.18098,-0.76573 -0.27148,-1.60805 -0.27148,-2.52693v-43.52181c0,-0.91888 0.10442,-1.74728 0.31327,-2.48517c0.20884,-0.75181 0.63348,-1.35744 1.27392,-1.81688c0.64042,-0.45944 1.64982,-0.68915 3.02815,-0.68915h20.2155c2.9655,0 5.58294,0.69613 7.85231,2.08837c2.2833,1.37833 4.05842,3.20219 5.32538,5.47156c1.28088,2.26936 1.92131,4.7615 1.92131,7.47639c0,1.22518 -0.13922,2.43643 -0.41768,3.63378c-0.27846,1.19735 -0.71701,2.31113 -1.31567,3.3414c-0.58474,1.01633 -1.30871,1.92828 -2.17191,2.73579c1.16949,0.9328 2.18583,2.06052 3.04904,3.38317c0.87712,1.32265 1.53148,2.76363 1.96308,4.32295c0.43159,1.55931 0.6474,3.1813 0.6474,4.86593c-0.04177,2.29721 -0.47336,4.43433 -1.2948,6.41133c-0.82144,1.96308 -1.96308,3.68946 -3.42494,5.17918c-1.44795,1.47578 -3.14648,2.62439 -5.09564,3.44583c-1.93522,0.8075 -4.02361,1.21126 -6.26514,1.21126zM196.92617,160.1235h15.55843c1.48972,0 2.80539,-0.27846 3.94705,-0.83535c1.15558,-0.57083 2.06052,-1.44098 2.71489,-2.61047c0.66828,-1.16949 1.00242,-2.70098 1.00242,-4.59444c0,-1.48972 -0.19493,-2.68008 -0.58474,-3.57112c-0.37591,-0.89103 -0.88409,-1.58717 -1.52451,-2.08838c-0.64042,-0.51513 -1.35743,-0.87712 -2.15102,-1.08596c-0.77967,-0.20884 -1.55237,-0.32022 -2.3181,-0.33414c-0.76573,-0.02785 -1.48275,-0.04177 -2.15103,-0.04177h-3.52935c-1.32265,0 -2.29025,-0.32023 -2.90284,-0.96066c-0.6126,-0.64042 -0.91889,-1.70551 -0.91889,-3.19521c0,-1.37833 0.32718,-2.35986 0.98155,-2.94461c0.66828,-0.58474 1.6916,-0.87712 3.06993,-0.87712h3.44583c0.66828,0 1.39922,-0.02087 2.1928,-0.06265c0.79359,-0.05568 1.5454,-0.25061 2.25545,-0.58475c0.71005,-0.33414 1.29479,-0.88408 1.75424,-1.64981c0.45945,-0.76573 0.68917,-1.88651 0.68917,-3.36229c0,-2.31113 -0.59866,-3.9888 -1.796,-5.03298c-1.19734,-1.04419 -3.25091,-1.56627 -6.16072,-1.56627h-13.57446zM251.86733,169.16619c-2.3529,0 -4.51089,-0.41768 -6.47397,-1.25303c-1.96308,-0.84927 -3.68946,-2.06749 -5.17918,-3.65465c-1.47578,-1.58717 -2.62439,-3.47368 -3.44582,-5.6595c-0.8075,-2.19977 -1.21126,-4.62923 -1.21126,-7.28843v-15.24517c0,-0.8632 0.07657,-1.63589 0.22973,-2.31809c0.15316,-0.69613 0.55689,-1.24607 1.21126,-1.64982c0.66828,-0.41768 1.6916,-0.62651 3.06993,-0.62651c1.48972,0 2.54782,0.20884 3.17433,0.62651c0.64042,0.40376 1.03722,0.96066 1.19038,1.6707c0.15316,0.71005 0.22973,1.50363 0.22973,2.38075v15.16163c0,1.83777 0.32023,3.42494 0.96065,4.7615c0.64042,1.32265 1.57325,2.3529 2.79843,3.0908c1.22517,0.73791 2.73579,1.10684 4.53179,1.10684c1.83778,0 3.40407,-0.36894 4.69886,-1.10683c1.30871,-0.73791 2.3181,-1.78209 3.02815,-3.13256c0.72396,-1.35047 1.08596,-2.92373 1.08596,-4.71974v-15.3287c0,-0.8632 0.07657,-1.6359 0.22973,-2.31809c0.15316,-0.69613 0.55689,-1.23213 1.21126,-1.60805c0.66828,-0.38982 1.71943,-0.58474 3.15346,-0.58474c1.4201,0 2.43644,0.20883 3.04904,0.62651c0.6126,0.40376 1.00939,0.96066 1.19038,1.6707c0.18099,0.71005 0.2715,1.47578 0.2715,2.29722v28.73609c0,0.76573 -0.0905,1.48276 -0.27149,2.15104c-0.18099,0.65437 -0.59171,1.1834 -1.23213,1.58716c-0.62651,0.41768 -1.65679,0.62652 -3.0908,0.62652c-1.01634,0 -1.82386,-0.11834 -2.42252,-0.35502c-0.58474,-0.22275 -1.01633,-0.52209 -1.29479,-0.898c-0.27846,-0.38982 -0.45945,-0.78662 -0.54298,-1.19037c-0.06962,-0.41768 -0.10441,-0.82838 -0.10441,-1.23213l0.60564,-2.06749c-0.30629,0.45944 -0.76573,1.00939 -1.37833,1.64983c-0.6126,0.64042 -1.36442,1.28088 -2.25545,1.92131c-0.89103,0.62652 -1.92827,1.14164 -3.11167,1.5454c-1.16949,0.41768 -2.47125,0.62651 -3.90526,0.62651zM298.15882,169.16619c-2.50606,0 -4.74759,-0.49426 -6.72458,-1.48274c-1.96308,-1.00242 -3.61986,-2.37379 -4.97034,-4.1141c-1.35048,-1.74033 -2.37379,-3.74517 -3.06991,-6.01453c-0.68219,-2.26936 -1.0233,-4.70582 -1.0233,-7.30933c0.05568,-2.60351 0.43856,-5.03996 1.14862,-7.30933c0.71005,-2.28331 1.74033,-4.28117 3.0908,-5.99364c1.36442,-1.71247 3.01423,-3.04903 4.94946,-4.00968c1.94916,-0.97457 4.14891,-1.46186 6.59928,-1.46186c2.33898,0 4.5457,0.48729 6.62016,1.46186c2.07446,0.96066 3.91224,2.29721 5.51332,4.00968c1.61502,1.71247 2.88197,3.71035 3.80085,5.99366c0.91888,2.26936 1.37833,4.67797 1.37833,7.22579c0,2.65921 -0.45945,5.15132 -1.37833,7.47639c-0.91888,2.32507 -2.17191,4.34383 -3.75908,6.0563c-1.58717,1.71247 -3.43191,3.05599 -5.5342,4.03057c-2.08838,0.96066 -4.30206,1.44099 -6.64105,1.44099zM296.92667,160.20704c1.78209,0 3.39014,-0.41767 4.82416,-1.25302c1.43401,-0.84927 2.56871,-2.01181 3.40406,-3.48758c0.84927,-1.48972 1.27392,-3.1813 1.27392,-5.07476c0,-1.93522 -0.42464,-3.65465 -1.2739,-5.15829c-0.83535,-1.51755 -1.97004,-2.694 -3.40405,-3.52935c-1.43401,-0.84927 -3.04207,-1.2739 -4.82415,-1.2739c-1.74032,0 -3.32749,0.43857 -4.7615,1.31569c-1.4201,0.8632 -2.55478,2.03964 -3.40405,3.52936c-0.83535,1.47578 -1.25303,3.1813 -1.25303,5.11653c0,1.89345 0.41768,3.58505 1.25303,5.07477c0.84927,1.47578 1.98396,2.63832 3.40406,3.48759c1.43401,0.83535 3.02118,1.25303 4.7615,1.25303zM282.74659,169.24973c-1.37833,0 -2.40163,-0.22276 -3.06991,-0.66828c-0.65437,-0.43159 -1.0581,-0.98851 -1.21125,-1.6707c-0.15316,-0.69613 -0.22971,-1.4758 -0.22971,-2.339v-45.67283c0,-0.8632 0.07657,-1.6359 0.22973,-2.31809c0.15316,-0.69613 0.55689,-1.24606 1.21126,-1.64981c0.66828,-0.41768 1.6916,-0.62652 3.06993,-0.62652c1.43401,0 2.45732,0.20884 3.06992,0.62652c0.6126,0.40376 0.99546,0.96066 1.14862,1.6707c0.15316,0.71005 0.22973,1.47577 0.22973,2.29721v47.19736c-0.20884,1.12772 -0.63348,1.93523 -1.27391,2.42252c-0.62651,0.48729 -1.68462,0.73094 -3.17433,0.73094zM342.06363,169.16619c-2.50606,0 -4.74757,-0.49426 -6.72458,-1.48274c-1.96308,-1.00242 -3.61987,-2.37379 -4.97034,-4.1141c-1.35048,-1.74033 -2.37379,-3.74517 -3.06991,-6.01453c-0.68219,-2.26936 -1.0233,-4.70582 -1.0233,-7.30933c0.05568,-2.60351 0.43856,-5.03996 1.14862,-7.30933c0.71005,-2.28331 1.74032,-4.28117 3.0908,-5.99364c1.36442,-1.71247 3.01423,-3.04903 4.94947,-4.00968c1.94915,-0.97457 4.1489,-1.46186 6.59927,-1.46186c2.33898,0 4.54571,0.48729 6.62017,1.46186c2.07446,0.96066 3.91224,2.29721 5.51332,4.00968c1.61502,1.71247 2.88197,3.71035 3.80085,5.99366c0.91888,2.26936 1.37833,4.67797 1.37833,7.22579c0,2.65921 -0.45945,5.15132 -1.37833,7.47639c-0.91888,2.32507 -2.17192,4.34383 -3.75909,6.0563c-1.58717,1.71247 -3.43191,3.05599 -5.5342,4.03057c-2.08838,0.96066 -4.30206,1.44099 -6.64104,1.44099zM340.83149,160.20704c1.78209,0 3.39013,-0.41767 4.82416,-1.25302c1.43401,-0.84927 2.56871,-2.01181 3.40407,-3.48758c0.84927,-1.48972 1.27392,-3.1813 1.27392,-5.07476c0,-1.93522 -0.42464,-3.65465 -1.27391,-5.15829c-0.83535,-1.51755 -1.97004,-2.694 -3.40405,-3.52935c-1.43401,-0.84927 -3.04207,-1.2739 -4.82415,-1.2739c-1.74031,0 -3.32748,0.43857 -4.7615,1.31569c-1.4201,0.8632 -2.55478,2.03964 -3.40405,3.52936c-0.83535,1.47578 -1.25303,3.1813 -1.25303,5.11653c0,1.89345 0.41768,3.58505 1.25303,5.07477c0.84927,1.47578 1.98397,2.63832 3.40407,3.48759c1.43401,0.83535 3.02118,1.25303 4.7615,1.25303zM326.65141,169.24973c-1.37833,0 -2.40163,-0.22276 -3.06991,-0.66828c-0.65437,-0.43159 -1.05811,-0.98851 -1.21126,-1.6707c-0.15316,-0.69613 -0.22971,-1.4758 -0.22971,-2.339v-45.67283c0,-0.8632 0.07657,-1.6359 0.22973,-2.31809c0.15316,-0.69613 0.55689,-1.24606 1.21125,-1.64981c0.66828,-0.41768 1.6916,-0.62652 3.06993,-0.62652c1.43401,0 2.45732,0.20884 3.06991,0.62652c0.6126,0.40376 0.99546,0.96066 1.14862,1.6707c0.15316,0.71005 0.22973,1.47577 0.22973,2.29721v47.19736c-0.20884,1.12772 -0.63348,1.93523 -1.27391,2.42252c-0.62651,0.48729 -1.68462,0.73094 -3.17433,0.73094zM379.45274,169.24973c-1.89347,0 -3.57112,-0.13227 -5.03298,-0.39679c-1.44795,-0.25061 -2.694,-0.6822 -3.73819,-1.29479c-1.04419,-0.6126 -1.90042,-1.44098 -2.5687,-2.48516c-0.66828,-1.04419 -1.16949,-2.33202 -1.50363,-3.8635c-0.33414,-1.5454 -0.50121,-3.39014 -0.50121,-5.5342v-36.92253c0,-0.87712 0.0905,-1.65679 0.2715,-2.33899c0.18099,-0.69613 0.59171,-1.25999 1.23215,-1.69158c0.64042,-0.43159 1.67767,-0.64739 3.11169,-0.64739c1.4201,0 2.45036,0.20884 3.0908,0.62651c0.64042,0.40376 1.05115,0.95369 1.23215,1.64983c0.18099,0.6822 0.2715,1.4549 0.2715,2.3181v36.63016c0,0.97457 0.06265,1.78209 0.18796,2.42252c0.12531,0.62652 0.35503,1.13469 0.68917,1.52453c0.33414,0.37591 0.76573,0.64043 1.2948,0.79358c0.54298,0.15315 1.19734,0.22973 1.96308,0.22973c0.66828,0 1.26694,0.07658 1.796,0.22973c0.54298,0.15315 0.97457,0.53602 1.2948,1.14862c0.33414,0.6126 0.50121,1.61502 0.50121,3.00726c0,1.4201 -0.16707,2.46429 -0.50121,3.13257c-0.32022,0.66828 -0.76574,1.079 -1.33657,1.23215c-0.5569,0.15315 -1.14165,0.22973 -1.75423,0.22973zM406.80382,169.70917c-3.31356,0 -6.20945,-0.53603 -8.68766,-1.60805c-2.47821,-1.07205 -4.55267,-2.54086 -6.22337,-4.40647c-1.65679,-1.86562 -2.90981,-3.96096 -3.75908,-6.28601c-0.83535,-2.32507 -1.25303,-4.74061 -1.25303,-7.24667c0,-3.67554 0.84231,-6.94038 2.52694,-9.79449c1.68462,-2.86805 4.01665,-5.11652 6.99608,-6.74545c2.99334,-1.64285 6.43221,-2.46429 10.31659,-2.46429c2.75666,0 5.17918,0.43857 7.26756,1.31569c2.10229,0.8632 3.85653,1.99788 5.26271,3.40407c1.40617,1.40618 2.4782,2.95158 3.2161,4.6362c0.75182,1.68462 1.12772,3.32053 1.12772,4.9077c0,2.70098 -0.65436,4.66405 -1.96308,5.88922c-1.30872,1.22518 -2.9307,1.83777 -4.86592,1.83777h-20.23638c0.05568,1.74033 0.60564,3.25091 1.64983,4.53179c1.04419,1.26694 2.37379,2.24849 3.98881,2.94463c1.61501,0.6822 3.26483,1.02331 4.94946,1.02331c1.26694,0 2.40165,-0.07657 3.40407,-0.22972c1.00242,-0.15315 1.85866,-0.3411 2.56871,-0.56385c0.71005,-0.23669 1.32959,-0.48032 1.85866,-0.73092c0.54298,-0.25061 1.04419,-0.48032 1.50364,-0.68916c0.45945,-0.20884 0.89801,-0.33414 1.31568,-0.37591c0.55689,-0.05568 1.1138,0.06963 1.6707,0.37591c0.57082,0.30629 1.03026,0.84231 1.37833,1.60806c0.30629,0.51513 0.52209,0.98851 0.6474,1.4201c0.13921,0.43159 0.20884,0.85625 0.20884,1.27392c0,1.01633 -0.6126,1.97004 -1.83778,2.86109c-1.22519,0.89103 -2.95158,1.62894 -5.17917,2.21368c-2.22761,0.59866 -4.84504,0.89801 -7.85231,0.89801zM396.529,147.71854h15.7255c0.86319,0 1.52452,-0.13922 1.98397,-0.41768c0.45945,-0.29237 0.68917,-0.898 0.68917,-1.81688c0,-1.16949 -0.362,-2.2276 -1.08596,-3.17434c-0.71005,-0.94674 -1.67767,-1.68462 -2.90284,-2.21368c-1.22519,-0.54298 -2.65223,-0.81446 -4.28117,-0.81446c-1.89347,0 -3.60593,0.37591 -5.13741,1.12772c-1.53148,0.73791 -2.74969,1.74728 -3.65465,3.02815c-0.89105,1.26694 -1.33657,2.69402 -1.33657,4.28118z"/><path d="M214.09265,233.42977c-3.82871,0 -7.35109,-0.67525 -10.56719,-2.02572c-3.2161,-1.35047 -6.00062,-3.27875 -8.35352,-5.78481c-2.3529,-2.50606 -4.16979,-5.45764 -5.45066,-8.85473c-1.26694,-3.39709 -1.90042,-7.16313 -1.90042,-11.29812c0,-3.88439 0.66132,-7.43463 1.98397,-10.65073c1.33656,-3.2161 3.20219,-6.00756 5.59686,-8.37439c2.39467,-2.38075 5.24183,-4.23243 8.54147,-5.55508c3.29964,-1.33656 6.91254,-2.00485 10.83869,-2.00485c1.64285,0 3.32749,0.13922 5.05388,0.41768c1.74032,0.27846 3.42494,0.71701 5.05388,1.31569c1.64285,0.58474 3.07689,1.30871 4.30206,2.17192c0.97457,0.6126 1.80297,1.23911 2.48518,1.87954c0.69614,0.64042 1.06508,1.37136 1.10685,2.1928c0.05568,0.45944 -0.02087,0.96065 -0.22971,1.50363c-0.19493,0.52907 -0.50121,1.07204 -0.91888,1.62893c-0.55689,0.8632 -1.15558,1.50364 -1.79601,1.92131c-0.64042,0.40376 -1.26694,0.60564 -1.87954,0.60564c-0.34805,0 -0.77967,-0.13922 -1.2948,-0.41768c-0.51513,-0.27846 -1.2043,-0.67524 -2.06749,-1.19037c-0.66828,-0.45944 -1.53844,-0.89103 -2.61047,-1.29479c-1.07205,-0.41768 -2.24849,-0.75181 -3.52936,-1.00242c-1.26694,-0.25061 -2.58959,-0.37591 -3.96792,-0.37591c-3.42494,0 -6.43916,0.71702 -9.04267,2.15104c-2.60351,1.4201 -4.63621,3.44583 -6.09807,6.07719c-1.46186,2.63136 -2.19279,5.70824 -2.19279,9.23063c0,3.63378 0.7379,6.829 2.21368,9.58567c1.48972,2.75666 3.5224,4.91466 6.09807,6.47397c2.58959,1.55931 5.569,2.33899 8.93826,2.33899c1.16949,0 2.3529,-0.07657 3.55024,-0.22971c1.21126,-0.15315 2.38771,-0.38288 3.52936,-0.68916c1.15558,-0.30629 2.22065,-0.68915 3.19523,-1.1486v-12.11259h-10.88045c-0.72396,0 -1.37833,-0.07657 -1.96308,-0.22971c-0.58474,-0.15315 -1.04419,-0.50818 -1.37833,-1.06507c-0.33414,-0.57083 -0.50122,-1.48972 -0.50122,-2.75666c0,-1.33656 0.17404,-2.2833 0.52211,-2.84019c0.36199,-0.57083 0.83535,-0.9328 1.4201,-1.08596c0.59866,-0.15315 1.25302,-0.22971 1.96308,-0.22971h15.64196c1.32265,0 2.29026,0.22973 2.90285,0.68917c0.6126,0.45944 1.02331,1.03723 1.23215,1.73336c0.20884,0.69613 0.31326,1.47577 0.31326,2.33898v17.85565c0,1.01633 -0.50121,2.06052 -1.50363,3.13257c-1.00242,1.07205 -2.39467,2.0675 -4.17676,2.98639c-1.16949,0.6126 -2.51301,1.14164 -4.03056,1.58717c-1.50363,0.43159 -3.11168,0.77271 -4.82415,1.02331c-1.71247,0.25061 -3.48758,0.37591 -5.32536,0.37591zM273.24891,232.97032c-1.47578,0 -2.57568,-0.27846 -3.29964,-0.83535c-0.71005,-0.55689 -1.06507,-1.32265 -1.06507,-2.29722l0.54298,-2.52693c-0.41767,0.66828 -1.11381,1.44795 -2.08838,2.33899c-0.96065,0.89103 -2.23456,1.68461 -3.82173,2.38075c-1.58717,0.6822 -3.50151,1.02331 -5.74303,1.02331c-2.40861,0 -4.671,-0.49425 -6.78722,-1.48274c-2.11624,-1.00242 -3.98183,-2.38075 -5.59686,-4.13499c-1.60108,-1.76815 -2.875,-3.78693 -3.82173,-6.0563c-0.94674,-2.28331 -1.4201,-4.7267 -1.4201,-7.33021c0,-2.50606 0.47336,-4.86591 1.4201,-7.07959c0.94674,-2.2276 2.23457,-4.20461 3.86351,-5.931c1.64285,-1.74033 3.52238,-3.10471 5.63862,-4.09322c2.11624,-1.00242 4.3508,-1.50363 6.70371,-1.50363c2.08838,0 3.86351,0.27846 5.32537,0.83535c1.46186,0.55689 2.70098,1.25999 3.71731,2.10927c1.01634,0.83535 1.85867,1.71247 2.52695,2.63136l-0.45945,-2.21368c0,-1.12772 0.35503,-1.98396 1.06508,-2.5687c0.72396,-0.58474 1.85169,-0.87712 3.38317,-0.87712c1.4201,0 2.43644,0.2158 3.04904,0.6474c0.62651,0.43159 1.01633,1.02332 1.16949,1.77513c0.15316,0.73791 0.22973,1.56629 0.22973,2.48517v28.04693c0,0.8632 -0.07657,1.65679 -0.22971,2.38075c-0.15316,0.71005 -0.54995,1.26694 -1.19037,1.6707c-0.64042,0.40376 -1.67767,0.60564 -3.11168,0.60564zM259.15236,224.09471c1.74032,0 3.29964,-0.43159 4.67797,-1.29479c1.37833,-0.87712 2.48518,-2.06749 3.32053,-3.57112c0.84927,-1.50364 1.27392,-3.1813 1.27392,-5.03298c0,-1.99093 -0.43856,-3.72428 -1.31567,-5.20006c-0.8632,-1.47578 -1.99788,-2.63832 -3.40405,-3.48758c-1.40618,-0.84927 -2.97246,-1.27391 -4.69885,-1.27391c-1.89346,0 -3.58505,0.45248 -5.07476,1.35746c-1.47578,0.89103 -2.63832,2.08837 -3.48758,3.59201c-0.83535,1.50364 -1.25303,3.20219 -1.25303,5.09565c0,1.83777 0.43159,3.50151 1.2948,4.99123c0.87712,1.47578 2.0675,2.65225 3.57114,3.52937c1.50363,0.8632 3.20218,1.29479 5.09564,1.29479zM289.88628,233.05386c-1.37833,0 -2.38772,-0.20884 -3.02814,-0.62651c-0.64042,-0.40376 -1.03722,-0.96065 -1.19037,-1.6707c-0.15316,-0.71005 -0.22972,-1.47578 -0.22972,-2.29722v-28.65256c0,-0.82144 0.07657,-1.55931 0.22973,-2.21368c0.15316,-0.66828 0.55689,-1.20431 1.21125,-1.60805c0.66828,-0.41768 1.71943,-0.62652 3.15346,-0.62652c1.47578,0 2.55479,0.30629 3.237,0.91889c0.69614,0.6126 1.04419,1.5802 1.04419,2.90285l-0.68916,2.15104c0.26452,-0.55689 0.70308,-1.16949 1.31568,-1.83777c0.6126,-0.66828 1.36442,-1.3296 2.25545,-1.98396c0.89103,-0.66828 1.90043,-1.20429 3.02816,-1.60804c1.12772,-0.41768 2.30418,-0.62651 3.52936,-0.62651c1.68462,0 3.23002,0.28541 4.63621,0.85624c1.40618,0.55689 2.65224,1.37136 3.7382,2.44341c1.09987,1.07205 2.06052,2.37379 2.88196,3.90527c0.8632,-1.32265 1.83081,-2.53391 2.90285,-3.63378c1.07205,-1.09987 2.32507,-1.97004 3.75908,-2.61046c1.43401,-0.64042 3.04207,-0.96066 4.82416,-0.96066c2.9655,0 5.45764,0.74485 7.4764,2.23457c2.01875,1.47578 3.55024,3.58505 4.59443,6.3278c1.04419,2.7288 1.56629,5.97973 1.56629,9.75274v14.86925c0,0.8632 -0.09049,1.64285 -0.27148,2.33899c-0.16707,0.6822 -0.57084,1.22518 -1.21126,1.62894c-0.64042,0.41768 -1.67767,0.62651 -3.11168,0.62651c-1.4201,0 -2.46429,-0.2158 -3.13256,-0.64739c-0.66828,-0.43159 -1.079,-0.98851 -1.23214,-1.6707c-0.15314,-0.69613 -0.22971,-1.48274 -0.22971,-2.35986v-14.86926c0,-1.87954 -0.22971,-3.50847 -0.68915,-4.8868c-0.45945,-1.37833 -1.13469,-2.45038 -2.02573,-3.2161c-0.89103,-0.77967 -2.05357,-1.16949 -3.48758,-1.16949c-1.53148,0 -2.84716,0.37591 -3.94703,1.12772c-1.09987,0.73791 -1.95611,1.796 -2.56869,3.17433c-0.6126,1.37833 -0.91889,3.06295 -0.91889,5.05388v14.95279c0,0.8632 -0.13227,1.66374 -0.39679,2.40165c-0.25061,0.73791 -0.74485,1.29479 -1.48274,1.6707c-0.73791,0.38982 -1.79601,0.53601 -3.17434,0.43856c-1.28088,-0.05568 -2.21368,-0.31324 -2.79843,-0.77269c-0.58474,-0.45944 -0.94674,-1.03027 -1.08595,-1.71247c-0.12531,-0.69613 -0.18795,-1.42707 -0.18795,-2.1928v-14.86925c0,-1.87954 -0.22971,-3.52239 -0.68916,-4.92857c-0.45945,-1.40618 -1.13468,-2.4782 -2.02572,-3.2161c-0.89103,-0.75181 -2.07447,-1.12772 -3.55025,-1.12772c-1.58717,0 -2.9307,0.41071 -4.03057,1.23215c-1.09987,0.82144 -1.93522,1.92131 -2.50605,3.29964c-0.55689,1.37833 -0.83535,2.95853 -0.83535,4.74062v15.03633c0,0.8075 -0.0905,1.57326 -0.27149,2.29722c-0.16707,0.71005 -0.57083,1.25303 -1.21126,1.62894c-0.64042,0.38982 -1.69855,0.58474 -3.17433,0.58474zM352.71666,233.13739c-1.37833,0 -2.40163,-0.22275 -3.06991,-0.66828c-0.66828,-0.43159 -1.07899,-0.98851 -1.23214,-1.6707c-0.15316,-0.69613 -0.22971,-1.47578 -0.22971,-2.33899v-28.50636c0,-0.82144 0.0905,-1.57325 0.2715,-2.25545c0.18099,-0.69613 0.59171,-1.24606 1.23215,-1.64981c0.64042,-0.40376 1.6707,-0.60563 3.0908,-0.60563c1.43401,0 2.47125,0.20188 3.11169,0.60564c0.64042,0.40376 1.03723,0.96762 1.19038,1.6916c0.15316,0.71005 0.22973,1.49667 0.22973,2.35987v28.44372c0,0.8632 -0.07657,1.64284 -0.22971,2.33898c-0.15316,0.6822 -0.54994,1.22518 -1.19037,1.62894c-0.64044,0.41768 -1.69856,0.62651 -3.17434,0.62651zM352.71666,188.00752c-1.48972,0 -2.58263,-0.2158 -3.27875,-0.64739c-0.68219,-0.44553 -1.11381,-1.05115 -1.29479,-1.81688c-0.18099,-0.76573 -0.27149,-1.60805 -0.27149,-2.52693c0,-0.97457 0.0905,-1.81688 0.2715,-2.52693c0.18099,-0.71005 0.62651,-1.28088 1.33657,-1.71247c0.72396,-0.44553 1.82385,-0.66828 3.29964,-0.66828c1.53148,0 2.63136,0.22973 3.29964,0.68917c0.66828,0.45944 1.09987,1.06508 1.2948,1.81689c0.20884,0.73791 0.31327,1.58716 0.31327,2.54782c0,0.87712 -0.10441,1.69856 -0.31325,2.46429c-0.19493,0.76573 -0.62652,1.35745 -1.2948,1.77513c-0.66828,0.40376 -1.78904,0.60564 -3.36228,0.60564zM370.17296,233.05386c-1.37833,0 -2.38772,-0.21581 -3.02814,-0.64739c-0.64042,-0.43159 -1.03722,-0.98851 -1.19037,-1.6707c-0.15314,-0.69613 -0.22971,-1.48274 -0.22971,-2.35986v-28.65256c0,-0.82144 0.07657,-1.55931 0.22973,-2.21368c0.15316,-0.66828 0.56387,-1.19037 1.23215,-1.56628c0.66828,-0.38982 1.69159,-0.58474 3.06992,-0.58474c1.22519,0 2.14407,0.15316 2.75666,0.45944c0.6126,0.30629 1.01635,0.68917 1.21126,1.14862c0.20884,0.45944 0.32718,0.91889 0.35503,1.37833c0.02785,0.45944 0.06963,0.81447 0.12531,1.06508l-0.31325,2.46428c0.3063,-0.82144 0.81447,-1.61502 1.52452,-2.38075c0.72397,-0.76573 1.59413,-1.46883 2.61048,-2.10926c1.03028,-0.64042 2.14407,-1.1486 3.34141,-1.52451c1.19734,-0.38982 2.43644,-0.58475 3.71731,-0.58475c2.39465,0 4.5387,0.43857 6.43216,1.31569c1.89347,0.8632 3.51544,2.08838 4.86593,3.67555c1.35049,1.57325 2.38075,3.44583 3.0908,5.61774c0.72397,2.17192 1.08596,4.61533 1.08596,7.33022v15.24516c0,0.8632 -0.09049,1.64285 -0.27148,2.33899c-0.18099,0.6822 -0.57778,1.22518 -1.19037,1.62894c-0.61259,0.41768 -1.65678,0.62651 -3.13257,0.62651c-1.43401,0 -2.48516,-0.2158 -3.15344,-0.64739c-0.65436,-0.43159 -1.0581,-0.98851 -1.21126,-1.6707c-0.15314,-0.69613 -0.22971,-1.48274 -0.22971,-2.35986v-15.24516c0,-1.83777 -0.32022,-3.41798 -0.96066,-4.74062c-0.64042,-1.33656 -1.56628,-2.35986 -2.77754,-3.06991c-1.19731,-0.72396 -2.71485,-1.08595 -4.55262,-1.08595c-1.78208,0 -3.34141,0.37591 -4.67797,1.12772c-1.32263,0.73791 -2.34595,1.77513 -3.06991,3.11169c-0.71005,1.32265 -1.06507,2.875 -1.06507,4.65709v15.3287c0,0.8632 -0.07657,1.64285 -0.22971,2.33899c-0.15314,0.6822 -0.54994,1.22517 -1.19037,1.62893c-0.62651,0.41768 -1.68462,0.62651 -3.17434,0.62651zM425.0481,248.4452c-1.83778,0 -3.60593,-0.2158 -5.30448,-0.64739c-1.68462,-0.4316 -3.20218,-1.00939 -4.55266,-1.73336c-1.35048,-0.71005 -2.42252,-1.47579 -3.2161,-2.29722c-0.79359,-0.80751 -1.19037,-1.56628 -1.19037,-2.27633c0,-0.72397 0.11139,-1.34352 0.33414,-1.85866c0.23669,-0.50121 0.58474,-1.00938 1.04419,-1.52452c0.6126,-0.6126 1.10685,-1.07204 1.48275,-1.37833c0.38984,-0.30629 0.91889,-0.45945 1.58717,-0.45945c0.5569,0 1.09989,0.20188 1.62894,0.60564c0.54298,0.41767 1.16949,0.87712 1.87954,1.37833c0.72397,0.51513 1.59413,0.97458 2.61048,1.37833c1.03028,0.41767 2.33898,0.62651 3.92615,0.62651c1.32265,0 2.54086,-0.22972 3.65467,-0.68917c1.12772,-0.45944 2.08838,-1.14165 2.88197,-2.04661c0.79359,-0.89103 1.42009,-1.94916 1.87954,-3.17434c0.45945,-1.22518 0.68917,-2.6035 0.68917,-4.13499l-0.06264,-31.72246c0.09746,-1.16949 0.50121,-1.99787 1.21126,-2.48516c0.72397,-0.48729 1.82386,-0.73093 3.29964,-0.73093c1.37833,0 2.37379,0.19493 2.98639,0.58475c0.6126,0.37591 0.99546,0.91192 1.14861,1.60806c0.15316,0.6822 0.22973,1.43401 0.22973,2.25545v31.03331c0,2.81234 -0.48728,5.31145 -1.46186,7.49729c-0.96065,2.19977 -2.28329,4.05145 -3.96792,5.55508c-1.68462,1.51754 -3.61289,2.66617 -5.7848,3.44582c-2.17192,0.79359 -4.48305,1.19038 -6.93342,1.19038zM424.19186,232.13497c-2.39466,0 -4.62924,-0.45945 -6.70369,-1.37833c-2.06052,-0.91888 -3.87046,-2.22066 -5.42978,-3.90527c-1.55932,-1.68462 -2.79146,-3.63378 -3.69642,-5.84746c-0.89103,-2.2276 -1.33656,-4.65011 -1.33656,-7.26756c0,-2.54782 0.44553,-4.92161 1.33656,-7.12136c0.90497,-2.19977 2.13711,-4.14195 3.69644,-5.82657c1.55933,-1.68462 3.36926,-2.99335 5.42978,-3.92615c2.07446,-0.94674 4.28814,-1.4201 6.64104,-1.4201c2.29721,0 4.30206,0.44553 6.01453,1.33657c1.71247,0.89103 3.12561,2.15799 4.23942,3.80085c1.12772,1.62894 1.98397,3.57113 2.56871,5.82658c0.58474,2.24153 0.87712,4.71277 0.87712,7.41375c0,3.73123 -0.50817,6.97518 -1.52451,9.73184c-1.01634,2.75666 -2.52693,4.87984 -4.53177,6.36956c-1.99091,1.47578 -4.51786,2.21368 -7.58081,2.21368zM425.0481,223.46819c1.7264,0 3.26484,-0.41767 4.61533,-1.25302c1.36442,-0.84927 2.4434,-2.01181 3.23699,-3.48759c0.79359,-1.47578 1.19038,-3.13953 1.19038,-4.99122c0,-1.87954 -0.39679,-3.54328 -1.19037,-4.99122c-0.79359,-1.46186 -1.87954,-2.6035 -3.25787,-3.42494c-1.37833,-0.82144 -2.93765,-1.23213 -4.67797,-1.23213c-1.74031,0 -3.28571,0.42463 -4.6362,1.27391c-1.35048,0.83535 -2.40859,1.97004 -3.17434,3.40407c-0.76573,1.43401 -1.1486,3.0908 -1.1486,4.97034c0,1.89345 0.38984,3.57113 1.16949,5.033c0.79359,1.44795 1.86563,2.59655 3.21611,3.44583c1.36442,0.83535 2.91676,1.25303 4.65709,1.25303z"/></g><path d="M194.70561,166.6462c-1.32265,0 -2.31809,-0.22972 -2.98638,-0.68916c-0.66828,-0.45944 -1.09292,-1.07205 -1.2739,-1.83777c-0.18098,-0.76573 -0.27149,-1.60805 -0.27149,-2.52693v-43.52181c0,-0.91888 0.10442,-1.74728 0.31327,-2.48516c0.20884,-0.75181 0.63348,-1.35744 1.27392,-1.81688c0.64042,-0.45944 1.64983,-0.68915 3.02816,-0.68915h20.2155c2.9655,0 5.58294,0.69613 7.8523,2.08838c2.2833,1.37833 4.05842,3.20218 5.32538,5.47155c1.28088,2.26936 1.92131,4.76151 1.92131,7.4764c0,1.22518 -0.13922,2.43643 -0.41768,3.63378c-0.27846,1.19735 -0.71701,2.31113 -1.31567,3.3414c-0.58474,1.01633 -1.30871,1.92827 -2.17191,2.73578c1.16949,0.9328 2.18583,2.06052 3.04904,3.38317c0.87712,1.32265 1.53148,2.76363 1.96308,4.32295c0.43159,1.55931 0.6474,3.1813 0.6474,4.86593c-0.04177,2.29721 -0.47336,4.43433 -1.2948,6.41133c-0.82144,1.96308 -1.96308,3.68946 -3.42494,5.17918c-1.44795,1.47578 -3.14648,2.62439 -5.09564,3.44583c-1.93522,0.8075 -4.0236,1.21126 -6.26513,1.21126zM199.44624,157.6035h15.55843c1.48972,0 2.80539,-0.27847 3.94705,-0.83536c1.15558,-0.57083 2.06052,-1.44097 2.71489,-2.61046c0.66828,-1.16949 1.00242,-2.70098 1.00242,-4.59443c0,-1.48972 -0.19493,-2.68009 -0.58475,-3.57112c-0.37591,-0.89103 -0.88409,-1.58716 -1.52451,-2.08837c-0.64042,-0.51513 -1.35743,-0.87712 -2.15102,-1.08596c-0.77967,-0.20884 -1.55237,-0.32023 -2.3181,-0.33414c-0.76573,-0.02785 -1.48275,-0.04176 -2.15103,-0.04176h-3.52935c-1.32265,0 -2.29026,-0.32023 -2.90284,-0.96066c-0.6126,-0.64042 -0.91888,-1.70551 -0.91888,-3.19521c0,-1.37833 0.32717,-2.35986 0.98154,-2.9446c0.66828,-0.58474 1.6916,-0.87712 3.06993,-0.87712h3.44583c0.66828,0 1.39922,-0.02087 2.1928,-0.06264c0.79359,-0.05568 1.5454,-0.25061 2.25545,-0.58475c0.71005,-0.33414 1.2948,-0.88408 1.75424,-1.64981c0.45945,-0.76573 0.68917,-1.8865 0.68917,-3.36228c0,-2.31113 -0.59866,-3.9888 -1.796,-5.03298c-1.19734,-1.04419 -3.25091,-1.56628 -6.16071,-1.56628h-13.57446zM254.3874,166.6462c-2.3529,0 -4.5109,-0.41768 -6.47397,-1.25303c-1.96308,-0.84927 -3.68946,-2.06749 -5.17918,-3.65466c-1.47578,-1.58717 -2.62439,-3.47367 -3.44581,-5.6595c-0.8075,-2.19977 -1.21126,-4.62924 -1.21126,-7.28844v-15.24516c0,-0.8632 0.07657,-1.6359 0.22973,-2.31809c0.15316,-0.69613 0.55689,-1.24606 1.21126,-1.64981c0.66828,-0.41768 1.6916,-0.62652 3.06993,-0.62652c1.48972,0 2.54782,0.20884 3.17433,0.62652c0.64042,0.40376 1.03722,0.96066 1.19038,1.6707c0.15316,0.71005 0.22973,1.50363 0.22973,2.38075v15.16163c0,1.83777 0.32023,3.42495 0.96065,4.7615c0.64042,1.32265 1.57325,2.35289 2.79843,3.0908c1.22517,0.73791 2.73579,1.10684 4.53179,1.10684c1.83778,0 3.40407,-0.36894 4.69886,-1.10683c1.30871,-0.73791 2.3181,-1.78209 3.02815,-3.13256c0.72396,-1.35047 1.08596,-2.92373 1.08596,-4.71974v-15.3287c0,-0.8632 0.07657,-1.6359 0.22973,-2.31809c0.15316,-0.69613 0.55689,-1.23213 1.21126,-1.60805c0.66828,-0.38982 1.71943,-0.58474 3.15346,-0.58474c1.4201,0 2.43643,0.20883 3.04903,0.62651c0.6126,0.40376 1.00939,0.96066 1.19038,1.6707c0.18099,0.71005 0.2715,1.47577 0.2715,2.29721v28.73609c0,0.76573 -0.0905,1.48276 -0.27149,2.15104c-0.18099,0.65437 -0.59171,1.1834 -1.23213,1.58716c-0.62651,0.41768 -1.65679,0.62652 -3.0908,0.62652c-1.01634,0 -1.82386,-0.11834 -2.42252,-0.35502c-0.58474,-0.22275 -1.01633,-0.52209 -1.29479,-0.898c-0.27846,-0.38982 -0.45944,-0.78662 -0.54298,-1.19037c-0.06962,-0.41768 -0.10442,-0.82838 -0.10442,-1.23213l0.60564,-2.06749c-0.30629,0.45944 -0.76573,1.00939 -1.37833,1.64983c-0.6126,0.64042 -1.36441,1.28088 -2.25545,1.92131c-0.89103,0.62652 -1.92827,1.14164 -3.11168,1.5454c-1.16949,0.41768 -2.47125,0.62651 -3.90526,0.62651zM300.67889,166.6462c-2.50606,0 -4.74759,-0.49426 -6.72458,-1.48274c-1.96308,-1.00242 -3.61986,-2.37379 -4.97034,-4.1141c-1.35048,-1.74033 -2.37379,-3.74517 -3.06991,-6.01453c-0.68219,-2.26936 -1.0233,-4.70582 -1.0233,-7.30933c0.05568,-2.60351 0.43856,-5.03996 1.14862,-7.30933c0.71005,-2.28331 1.74032,-4.28117 3.0908,-5.99364c1.36442,-1.71247 3.01423,-3.04903 4.94946,-4.00968c1.94916,-0.97457 4.1489,-1.46186 6.59928,-1.46186c2.33898,0 4.5457,0.48729 6.62016,1.46186c2.07446,0.96066 3.91224,2.29721 5.51332,4.00968c1.61502,1.71247 2.88197,3.71035 3.80085,5.99366c0.91888,2.26936 1.37833,4.67797 1.37833,7.22579c0,2.65921 -0.45945,5.15132 -1.37833,7.47639c-0.91888,2.32507 -2.17191,4.34383 -3.75908,6.0563c-1.58717,1.71247 -3.43191,3.05599 -5.5342,4.03057c-2.08838,0.96066 -4.30206,1.44099 -6.64105,1.44099zM299.44674,157.68703c1.78209,0 3.39013,-0.41768 4.82416,-1.25303c1.43401,-0.84927 2.56871,-2.01181 3.40407,-3.48758c0.84927,-1.48972 1.27391,-3.1813 1.27391,-5.07475c0,-1.93522 -0.42464,-3.65465 -1.2739,-5.15829c-0.83535,-1.51755 -1.97004,-2.69401 -3.40405,-3.52936c-1.43401,-0.84927 -3.04206,-1.27391 -4.82414,-1.27391c-1.74032,0 -3.32749,0.43857 -4.7615,1.31569c-1.4201,0.8632 -2.55478,2.03965 -3.40405,3.52937c-0.83535,1.47578 -1.25303,3.1813 -1.25303,5.11653c0,1.89345 0.41768,3.58505 1.25303,5.07477c0.84927,1.47578 1.98397,2.63832 3.40407,3.4876c1.43401,0.83535 3.02117,1.25303 4.7615,1.25303zM285.26665,166.72973c-1.37833,0 -2.40163,-0.22275 -3.06991,-0.66828c-0.65437,-0.43159 -1.0581,-0.98851 -1.21126,-1.6707c-0.15316,-0.69613 -0.22971,-1.4758 -0.22971,-2.339v-45.67284c0,-0.8632 0.07657,-1.63589 0.22973,-2.31809c0.15316,-0.69613 0.55689,-1.24607 1.21126,-1.64982c0.66828,-0.41768 1.6916,-0.62651 3.06993,-0.62651c1.43401,0 2.45732,0.20883 3.06992,0.62651c0.6126,0.40376 0.99546,0.96066 1.14862,1.67071c0.15316,0.71005 0.22973,1.47577 0.22973,2.29721v47.19736c-0.20884,1.12772 -0.63348,1.93523 -1.2739,2.42252c-0.62651,0.48729 -1.68462,0.73093 -3.17434,0.73093zM344.58369,166.6462c-2.50606,0 -4.74757,-0.49426 -6.72458,-1.48274c-1.96308,-1.00242 -3.61987,-2.37379 -4.97034,-4.1141c-1.35048,-1.74033 -2.37379,-3.74517 -3.06991,-6.01453c-0.68219,-2.26936 -1.0233,-4.70582 -1.0233,-7.30933c0.05568,-2.60351 0.43856,-5.03996 1.14862,-7.30933c0.71005,-2.28331 1.74033,-4.28117 3.09081,-5.99364c1.36442,-1.71247 3.01423,-3.04903 4.94946,-4.00968c1.94915,-0.97457 4.1489,-1.46186 6.59928,-1.46186c2.33898,0 4.5457,0.48729 6.62017,1.46186c2.07446,0.96066 3.91224,2.29721 5.51332,4.00968c1.61502,1.71247 2.88197,3.71035 3.80085,5.99366c0.91888,2.26936 1.37833,4.67797 1.37833,7.22579c0,2.65921 -0.45945,5.15132 -1.37833,7.47639c-0.91888,2.32507 -2.17191,4.34383 -3.75908,6.0563c-1.58717,1.71247 -3.43191,3.05599 -5.5342,4.03057c-2.08838,0.96066 -4.30206,1.44099 -6.64104,1.44099zM343.35155,157.68703c1.78209,0 3.39013,-0.41768 4.82416,-1.25303c1.43401,-0.84927 2.56871,-2.01181 3.40407,-3.48758c0.84927,-1.48972 1.27392,-3.1813 1.27392,-5.07475c0,-1.93522 -0.42464,-3.65465 -1.27391,-5.15829c-0.83535,-1.51755 -1.97004,-2.69401 -3.40405,-3.52936c-1.43401,-0.84927 -3.04207,-1.27391 -4.82415,-1.27391c-1.74031,0 -3.32748,0.43857 -4.7615,1.31569c-1.4201,0.8632 -2.55478,2.03965 -3.40405,3.52937c-0.83535,1.47578 -1.25302,3.1813 -1.25302,5.11653c0,1.89345 0.41767,3.58505 1.25302,5.07477c0.84927,1.47578 1.98397,2.63832 3.40407,3.4876c1.43401,0.83535 3.02118,1.25303 4.7615,1.25303zM329.17147,166.72973c-1.37833,0 -2.40163,-0.22275 -3.06991,-0.66828c-0.65437,-0.43159 -1.05811,-0.98851 -1.21126,-1.6707c-0.15316,-0.69613 -0.22971,-1.4758 -0.22971,-2.339v-45.67284c0,-0.8632 0.07657,-1.63589 0.22973,-2.31809c0.15316,-0.69613 0.55689,-1.24607 1.21126,-1.64982c0.66828,-0.41768 1.69159,-0.62651 3.06992,-0.62651c1.43401,0 2.45732,0.20883 3.06991,0.62651c0.6126,0.40376 0.99546,0.96066 1.14862,1.67071c0.15316,0.71005 0.22973,1.47577 0.22973,2.29721v47.19736c-0.20884,1.12772 -0.63348,1.93523 -1.27391,2.42252c-0.62651,0.48729 -1.68462,0.73093 -3.17433,0.73093zM381.9728,166.72973c-1.89347,0 -3.57112,-0.13226 -5.03298,-0.39678c-1.44795,-0.25061 -2.694,-0.6822 -3.73819,-1.29479c-1.04419,-0.6126 -1.90042,-1.44098 -2.5687,-2.48516c-0.66828,-1.04419 -1.16949,-2.33202 -1.50363,-3.8635c-0.33414,-1.5454 -0.50121,-3.39014 -0.50121,-5.5342v-36.92253c0,-0.87712 0.0905,-1.65679 0.2715,-2.33899c0.18099,-0.69613 0.59171,-1.25999 1.23215,-1.69158c0.64042,-0.43159 1.67766,-0.64739 3.11169,-0.64739c1.4201,0 2.45036,0.20884 3.0908,0.62652c0.64042,0.40376 1.05115,0.95369 1.23215,1.64982c0.18099,0.6822 0.2715,1.4549 0.2715,2.31811v36.63017c0,0.97457 0.06265,1.78209 0.18796,2.42252c0.12531,0.62652 0.35504,1.13469 0.68918,1.52452c0.33414,0.37591 0.76573,0.64043 1.29479,0.79359c0.54298,0.15315 1.19733,0.22973 1.96308,0.22973c0.66828,0 1.26694,0.07658 1.796,0.22973c0.54298,0.15315 0.97457,0.53601 1.2948,1.14861c0.33414,0.6126 0.50121,1.61502 0.50121,3.00727c0,1.4201 -0.16707,2.46429 -0.50121,3.13257c-0.32022,0.66828 -0.76574,1.07899 -1.33657,1.23215c-0.5569,0.15315 -1.14165,0.22973 -1.75423,0.22973zM409.32388,167.18917c-3.31356,0 -6.20945,-0.53603 -8.68766,-1.60804c-2.47821,-1.07205 -4.55267,-2.54086 -6.22337,-4.40647c-1.65679,-1.86562 -2.90981,-3.96096 -3.75908,-6.28601c-0.83535,-2.32507 -1.25302,-4.74061 -1.25302,-7.24667c0,-3.67554 0.84231,-6.94038 2.52694,-9.79449c1.68462,-2.86805 4.01666,-5.11652 6.99608,-6.74545c2.99334,-1.64285 6.43221,-2.46429 10.31659,-2.46429c2.75666,0 5.17918,0.43857 7.26756,1.31569c2.10229,0.8632 3.85653,1.99788 5.26271,3.40407c1.40617,1.40618 2.4782,2.95158 3.21611,4.6362c0.75182,1.68462 1.12772,3.32053 1.12772,4.9077c0,2.70098 -0.65437,4.66405 -1.96308,5.88923c-1.30872,1.22518 -2.9307,1.83777 -4.86592,1.83777h-20.23638c0.05568,1.74033 0.60564,3.25091 1.64983,4.53179c1.04419,1.26694 2.37379,2.24849 3.98881,2.94462c1.61501,0.6822 3.26483,1.02331 4.94946,1.02331c1.26694,0 2.40165,-0.07657 3.40407,-0.22971c1.00242,-0.15315 1.85866,-0.3411 2.56871,-0.56385c0.71005,-0.23669 1.3296,-0.48032 1.85867,-0.73093c0.54298,-0.25061 1.04418,-0.48032 1.50363,-0.68916c0.45945,-0.20884 0.89801,-0.33413 1.31568,-0.3759c0.55689,-0.05568 1.1138,0.06962 1.6707,0.3759c0.57082,0.30629 1.03026,0.84231 1.37833,1.60806c0.30629,0.51513 0.5221,0.98851 0.6474,1.4201c0.13921,0.43159 0.20884,0.85625 0.20884,1.27392c0,1.01633 -0.61259,1.97004 -1.83777,2.86109c-1.22519,0.89103 -2.95159,1.62893 -5.17918,2.21368c-2.22761,0.59866 -4.84504,0.89801 -7.85231,0.89801zM399.04906,145.19853h15.7255c0.86319,0 1.52452,-0.13921 1.98396,-0.41767c0.45945,-0.29237 0.68918,-0.898 0.68918,-1.81689c0,-1.16949 -0.362,-2.2276 -1.08596,-3.17434c-0.71005,-0.94674 -1.67767,-1.68461 -2.90284,-2.21368c-1.22519,-0.54298 -2.65223,-0.81446 -4.28117,-0.81446c-1.89347,0 -3.60593,0.37591 -5.13741,1.12772c-1.53148,0.73791 -2.74969,1.74728 -3.65465,3.02815c-0.89105,1.26694 -1.33657,2.69401 -1.33657,4.28118z" fill="#bde7ff"/><path d="M216.61271,230.90977c-3.82871,0 -7.35109,-0.67525 -10.56719,-2.02572c-3.2161,-1.35047 -6.00062,-3.27875 -8.35352,-5.78481c-2.3529,-2.50606 -4.16979,-5.45764 -5.45066,-8.85473c-1.26694,-3.39709 -1.90042,-7.16313 -1.90042,-11.29812c0,-3.88439 0.66132,-7.43463 1.98397,-10.65073c1.33656,-3.2161 3.20219,-6.00756 5.59686,-8.37439c2.39467,-2.38075 5.24183,-4.23244 8.54147,-5.55509c3.29964,-1.33656 6.91254,-2.00484 10.83869,-2.00484c1.64285,0 3.32749,0.13922 5.05388,0.41768c1.74032,0.27846 3.42495,0.71701 5.05388,1.31569c1.64285,0.58474 3.07689,1.30871 4.30206,2.17191c0.97457,0.6126 1.80296,1.23912 2.48517,1.87954c0.69614,0.64042 1.06508,1.37136 1.10685,2.1928c0.05568,0.45944 -0.02087,0.96065 -0.22971,1.50363c-0.19493,0.52907 -0.50122,1.07205 -0.91889,1.62894c-0.55689,0.8632 -1.15558,1.50364 -1.79601,1.92131c-0.64042,0.40376 -1.26694,0.60564 -1.87954,0.60564c-0.34805,0 -0.77967,-0.13922 -1.2948,-0.41768c-0.51513,-0.27846 -1.2043,-0.67524 -2.06749,-1.19037c-0.66828,-0.45944 -1.53844,-0.89103 -2.61047,-1.29479c-1.07205,-0.41768 -2.24849,-0.75182 -3.52936,-1.00242c-1.26694,-0.25061 -2.58959,-0.37591 -3.96792,-0.37591c-3.42494,0 -6.43917,0.71701 -9.04267,2.15104c-2.60351,1.4201 -4.6362,3.44583 -6.09807,6.07719c-1.46186,2.63136 -2.19279,5.70824 -2.19279,9.23063c0,3.63378 0.7379,6.829 2.21368,9.58567c1.48972,2.75666 3.52239,4.91466 6.09806,6.47397c2.58959,1.55931 5.569,2.33899 8.93826,2.33899c1.16949,0 2.3529,-0.07657 3.55024,-0.22971c1.21126,-0.15315 2.38771,-0.38288 3.52936,-0.68916c1.15558,-0.30629 2.22065,-0.68915 3.19523,-1.1486v-12.11259h-10.88045c-0.72396,0 -1.37833,-0.07657 -1.96308,-0.22971c-0.58474,-0.15315 -1.04419,-0.50818 -1.37833,-1.06507c-0.33414,-0.57083 -0.50121,-1.48972 -0.50121,-2.75666c0,-1.33656 0.17403,-2.2833 0.5221,-2.84019c0.36199,-0.57083 0.83535,-0.9328 1.4201,-1.08596c0.59866,-0.15315 1.25302,-0.22971 1.96308,-0.22971h15.64196c1.32265,0 2.29026,0.22973 2.90285,0.68917c0.6126,0.45944 1.02331,1.03723 1.23215,1.73337c0.20884,0.69613 0.31326,1.47577 0.31326,2.33898v17.85565c0,1.01633 -0.50122,2.06052 -1.50363,3.13257c-1.00242,1.07205 -2.39467,2.06751 -4.17676,2.98639c-1.16949,0.6126 -2.51302,1.14164 -4.03056,1.58716c-1.50363,0.43159 -3.11168,0.77271 -4.82415,1.02331c-1.71247,0.25061 -3.48758,0.37591 -5.32536,0.37591zM275.76897,230.45033c-1.47578,0 -2.57568,-0.27846 -3.29964,-0.83535c-0.71005,-0.55689 -1.06507,-1.32265 -1.06507,-2.29722l0.54298,-2.52693c-0.41767,0.66828 -1.11381,1.44795 -2.08838,2.33898c-0.96065,0.89103 -2.23455,1.68462 -3.82172,2.38075c-1.58717,0.6822 -3.50152,1.02331 -5.74304,1.02331c-2.40861,0 -4.671,-0.49425 -6.78722,-1.48274c-2.11624,-1.00242 -3.98183,-2.38075 -5.59686,-4.13499c-1.60108,-1.76815 -2.875,-3.78693 -3.82173,-6.0563c-0.94674,-2.28331 -1.4201,-4.7267 -1.4201,-7.33021c0,-2.50606 0.47336,-4.86592 1.4201,-7.0796c0.94674,-2.2276 2.23457,-4.20461 3.8635,-5.93099c1.64285,-1.74033 3.52239,-3.10471 5.63863,-4.09322c2.11624,-1.00242 4.35079,-1.50363 6.7037,-1.50363c2.08838,0 3.86351,0.27846 5.32538,0.83535c1.46186,0.55689 2.70097,1.25999 3.71731,2.10927c1.01634,0.83535 1.85867,1.71247 2.52695,2.63135l-0.45944,-2.21368c0,-1.12772 0.35503,-1.98396 1.06508,-2.5687c0.72396,-0.58474 1.85169,-0.87712 3.38317,-0.87712c1.4201,0 2.43644,0.2158 3.04904,0.6474c0.62651,0.43159 1.01633,1.02331 1.16949,1.77513c0.15316,0.73791 0.22973,1.56629 0.22973,2.48517v28.04694c0,0.8632 -0.07657,1.65679 -0.22972,2.38075c-0.15316,0.71005 -0.54994,1.26694 -1.19037,1.6707c-0.64042,0.40376 -1.67766,0.60563 -3.11167,0.60563zM261.67242,221.5747c1.74032,0 3.29964,-0.43159 4.67797,-1.29479c1.37833,-0.87712 2.48517,-2.06749 3.32052,-3.57112c0.84927,-1.50364 1.27392,-3.1813 1.27392,-5.03298c0,-1.99093 -0.43855,-3.72428 -1.31567,-5.20005c-0.8632,-1.47578 -1.99788,-2.63832 -3.40405,-3.48758c-1.40618,-0.84927 -2.97246,-1.27391 -4.69885,-1.27391c-1.89346,0 -3.58504,0.45247 -5.07475,1.35745c-1.47578,0.89103 -2.63832,2.08838 -3.48759,3.59201c-0.83535,1.50364 -1.25303,3.20219 -1.25303,5.09564c0,1.83777 0.43159,3.50151 1.2948,4.99123c0.87712,1.47578 2.0675,2.65225 3.57114,3.52937c1.50363,0.8632 3.20219,1.29479 5.09564,1.29479zM292.40634,230.53386c-1.37833,0 -2.38772,-0.20884 -3.02814,-0.62652c-0.64042,-0.40376 -1.03722,-0.96065 -1.19037,-1.6707c-0.15316,-0.71005 -0.22972,-1.47578 -0.22972,-2.29722v-28.65256c0,-0.82144 0.07657,-1.55931 0.22973,-2.21368c0.15316,-0.66828 0.55689,-1.20431 1.21126,-1.60805c0.66828,-0.41768 1.71943,-0.62652 3.15346,-0.62652c1.47578,0 2.55479,0.30629 3.237,0.91889c0.69614,0.6126 1.04419,1.5802 1.04419,2.90285l-0.68916,2.15104c0.26452,-0.55689 0.70308,-1.16949 1.31568,-1.83777c0.6126,-0.66828 1.36442,-1.3296 2.25545,-1.98396c0.89103,-0.66828 1.90043,-1.2043 3.02816,-1.60805c1.12772,-0.41768 2.30418,-0.62651 3.52937,-0.62651c1.68462,0 3.23002,0.28541 4.6362,0.85624c1.40618,0.55689 2.65225,1.37136 3.7382,2.44341c1.09987,1.07205 2.06052,2.37379 2.88196,3.90527c0.8632,-1.32265 1.83081,-2.53391 2.90285,-3.63378c1.07205,-1.09987 2.32507,-1.97004 3.75908,-2.61047c1.43401,-0.64042 3.04208,-0.96065 4.82416,-0.96065c2.9655,0 5.45764,0.74485 7.47639,2.23457c2.01875,1.47578 3.55024,3.58505 4.59443,6.3278c1.04419,2.7288 1.56629,5.97972 1.56629,9.75273v14.86926c0,0.8632 -0.09049,1.64284 -0.27148,2.33898c-0.16707,0.6822 -0.57084,1.22517 -1.21126,1.62893c-0.64042,0.41768 -1.67767,0.62652 -3.11168,0.62652c-1.4201,0 -2.46429,-0.2158 -3.13256,-0.64739c-0.66828,-0.43159 -1.07899,-0.98851 -1.23214,-1.6707c-0.15314,-0.69613 -0.22971,-1.48274 -0.22971,-2.35986v-14.86926c0,-1.87954 -0.22971,-3.50847 -0.68916,-4.8868c-0.45945,-1.37833 -1.13469,-2.45038 -2.02572,-3.2161c-0.89103,-0.77967 -2.05357,-1.16949 -3.48758,-1.16949c-1.53148,0 -2.84716,0.37591 -3.94703,1.12772c-1.09987,0.73791 -1.95611,1.79601 -2.5687,3.17434c-0.6126,1.37833 -0.91888,3.06295 -0.91888,5.05388v14.95279c0,0.8632 -0.13227,1.66374 -0.39679,2.40165c-0.25061,0.73791 -0.74485,1.29479 -1.48274,1.6707c-0.73791,0.38982 -1.79601,0.53602 -3.17434,0.43857c-1.28088,-0.05568 -2.21368,-0.31325 -2.79842,-0.77269c-0.58474,-0.45944 -0.94675,-1.03028 -1.08596,-1.71247c-0.12531,-0.69613 -0.18795,-1.42706 -0.18795,-2.19279v-14.86926c0,-1.87954 -0.22971,-3.52238 -0.68916,-4.92857c-0.45945,-1.40618 -1.13468,-2.4782 -2.02572,-3.2161c-0.89103,-0.75181 -2.07447,-1.12772 -3.55025,-1.12772c-1.58717,0 -2.9307,0.41071 -4.03057,1.23215c-1.09987,0.82144 -1.93523,1.92131 -2.50606,3.29964c-0.55689,1.37833 -0.83535,2.95853 -0.83535,4.74062v15.03633c0,0.8075 -0.09049,1.57326 -0.27148,2.29722c-0.16707,0.71005 -0.57084,1.25303 -1.21126,1.62894c-0.64042,0.38982 -1.69855,0.58474 -3.17433,0.58474zM355.23672,230.6174c-1.37833,0 -2.40163,-0.22275 -3.06991,-0.66828c-0.66828,-0.43159 -1.07899,-0.98851 -1.23214,-1.6707c-0.15316,-0.69613 -0.22971,-1.47578 -0.22971,-2.33898v-28.50636c0,-0.82144 0.0905,-1.57325 0.2715,-2.25545c0.18099,-0.69613 0.59171,-1.24606 1.23215,-1.64981c0.64042,-0.40376 1.6707,-0.60563 3.0908,-0.60563c1.43401,0 2.47125,0.20188 3.11169,0.60564c0.64042,0.40376 1.03722,0.96762 1.19038,1.6916c0.15316,0.71005 0.22973,1.49667 0.22973,2.35987v28.44372c0,0.8632 -0.07657,1.64284 -0.22971,2.33898c-0.15316,0.6822 -0.54995,1.22517 -1.19037,1.62893c-0.64044,0.41768 -1.69855,0.62652 -3.17433,0.62652zM355.23672,185.48752c-1.48972,0 -2.58263,-0.2158 -3.27875,-0.64739c-0.68219,-0.44553 -1.11381,-1.05115 -1.29479,-1.81688c-0.18099,-0.76573 -0.27149,-1.60805 -0.27149,-2.52693c0,-0.97457 0.09051,-1.81688 0.2715,-2.52693c0.18099,-0.71005 0.62651,-1.28088 1.33656,-1.71247c0.72396,-0.44553 1.82385,-0.66828 3.29964,-0.66828c1.53148,0 2.63135,0.22973 3.29963,0.68917c0.66828,0.45944 1.09987,1.06508 1.2948,1.8169c0.20884,0.73791 0.31327,1.58717 0.31327,2.54782c0,0.87712 -0.10441,1.69855 -0.31325,2.46428c-0.19493,0.76573 -0.62652,1.35746 -1.2948,1.77513c-0.66828,0.40376 -1.78904,0.60563 -3.36228,0.60563zM372.69303,230.53386c-1.37833,0 -2.38772,-0.21581 -3.02814,-0.64739c-0.64042,-0.43159 -1.03722,-0.98851 -1.19037,-1.6707c-0.15314,-0.69613 -0.22971,-1.48274 -0.22971,-2.35986v-28.65256c0,-0.82144 0.07657,-1.55931 0.22973,-2.21368c0.15316,-0.66828 0.56387,-1.19037 1.23215,-1.56628c0.66828,-0.38982 1.6916,-0.58474 3.06993,-0.58474c1.22519,0 2.14407,0.15316 2.75666,0.45944c0.6126,0.30629 1.01635,0.68917 1.21126,1.14862c0.20884,0.45944 0.32718,0.91889 0.35503,1.37833c0.02785,0.45944 0.06962,0.81447 0.1253,1.06508l-0.31325,2.46428c0.3063,-0.82144 0.81447,-1.61502 1.52452,-2.38075c0.72397,-0.76573 1.59413,-1.46883 2.61048,-2.10925c1.03028,-0.64042 2.14407,-1.1486 3.34141,-1.52451c1.19734,-0.38982 2.43644,-0.58475 3.71731,-0.58475c2.39465,0 4.5387,0.43857 6.43216,1.31569c1.89347,0.8632 3.51544,2.08838 4.86593,3.67555c1.35049,1.57325 2.38075,3.44583 3.0908,5.61774c0.72397,2.17192 1.08596,4.61533 1.08596,7.33022v15.24516c0,0.8632 -0.09049,1.64285 -0.27148,2.33899c-0.18099,0.6822 -0.57778,1.22518 -1.19037,1.62894c-0.61259,0.41768 -1.65678,0.62651 -3.13257,0.62651c-1.43401,0 -2.48516,-0.2158 -3.15344,-0.64739c-0.65436,-0.43159 -1.0581,-0.98851 -1.21125,-1.6707c-0.15314,-0.69613 -0.22971,-1.48274 -0.22971,-2.35986v-15.24516c0,-1.83777 -0.32022,-3.41798 -0.96066,-4.74062c-0.64042,-1.33656 -1.56628,-2.35986 -2.77754,-3.06991c-1.1973,-0.72396 -2.71485,-1.08596 -4.55262,-1.08596c-1.78208,0 -3.34141,0.37591 -4.67797,1.12772c-1.32263,0.73791 -2.34595,1.77513 -3.06991,3.11169c-0.71005,1.32265 -1.06507,2.875 -1.06507,4.65709v15.3287c0,0.8632 -0.07657,1.64285 -0.22971,2.33899c-0.15314,0.6822 -0.54994,1.22517 -1.19037,1.62893c-0.62651,0.41768 -1.68462,0.62652 -3.17434,0.62652zM427.56816,245.92519c-1.83778,0 -3.60593,-0.2158 -5.30448,-0.64739c-1.68462,-0.43161 -3.20218,-1.00938 -4.55266,-1.73336c-1.35048,-0.71005 -2.42252,-1.47579 -3.2161,-2.29722c-0.79359,-0.80751 -1.19037,-1.56628 -1.19037,-2.27633c0,-0.72397 0.1114,-1.34352 0.33415,-1.85866c0.23669,-0.50121 0.58474,-1.00939 1.04418,-1.52453c0.6126,-0.6126 1.10685,-1.07205 1.48276,-1.37833c0.38984,-0.30629 0.91889,-0.45945 1.58717,-0.45945c0.5569,0 1.09989,0.20188 1.62894,0.60564c0.54298,0.41768 1.16949,0.87712 1.87954,1.37833c0.72397,0.51512 1.59413,0.97458 2.61048,1.37833c1.03028,0.41767 2.33899,0.62651 3.92616,0.62651c1.32265,0 2.54086,-0.22973 3.65467,-0.68917c1.12772,-0.45945 2.08838,-1.14165 2.88196,-2.04661c0.79359,-0.89103 1.42009,-1.94916 1.87954,-3.17433c0.45945,-1.22518 0.68918,-2.60351 0.68918,-4.13499l-0.06265,-31.72246c0.09746,-1.16949 0.50121,-1.99788 1.21126,-2.48516c0.72397,-0.48729 1.82386,-0.73092 3.29964,-0.73092c1.37833,0 2.37379,0.19493 2.98639,0.58474c0.6126,0.37591 0.99546,0.91192 1.14861,1.60806c0.15316,0.6822 0.22973,1.43401 0.22973,2.25545v31.03331c0,2.81234 -0.48729,5.31144 -1.46187,7.49729c-0.96065,2.19977 -2.28328,4.05145 -3.96792,5.55508c-1.68462,1.51755 -3.61289,2.66617 -5.78481,3.44582c-2.17192,0.79359 -4.48304,1.19039 -6.93342,1.19039zM426.71192,229.61498c-2.39466,0 -4.62924,-0.45945 -6.70369,-1.37833c-2.06052,-0.91888 -3.87046,-2.22064 -5.42978,-3.90526c-1.55932,-1.68462 -2.79146,-3.63378 -3.69642,-5.84746c-0.89103,-2.2276 -1.33657,-4.65011 -1.33657,-7.26756c0,-2.54782 0.44553,-4.92161 1.33657,-7.12136c0.90497,-2.19977 2.13711,-4.14195 3.69644,-5.82657c1.55933,-1.68462 3.36926,-2.99335 5.42978,-3.92615c2.07446,-0.94674 4.28815,-1.4201 6.64105,-1.4201c2.29721,0 4.30206,0.44553 6.01453,1.33657c1.71247,0.89103 3.12561,2.15799 4.23942,3.80085c1.12772,1.62894 1.98397,3.57113 2.56871,5.82658c0.58474,2.24153 0.87712,4.71277 0.87712,7.41375c0,3.73123 -0.50817,6.97518 -1.52451,9.73184c-1.01634,2.75666 -2.52693,4.87984 -4.53177,6.36956c-1.99091,1.47578 -4.51786,2.21368 -7.5808,2.21368zM427.56816,220.94818c1.7264,0 3.26484,-0.41768 4.61533,-1.25303c1.36442,-0.84927 2.44341,-2.01181 3.23699,-3.48758c0.79359,-1.47578 1.19038,-3.13953 1.19038,-4.99122c0,-1.87954 -0.39679,-3.54328 -1.19037,-4.99122c-0.79359,-1.46186 -1.87954,-2.6035 -3.25787,-3.42494c-1.37833,-0.82144 -2.93764,-1.23213 -4.67797,-1.23213c-1.74031,0 -3.28571,0.42464 -4.6362,1.27392c-1.35048,0.83535 -2.4086,1.97004 -3.17434,3.40406c-0.76573,1.43401 -1.1486,3.09081 -1.1486,4.97035c0,1.89345 0.38984,3.57113 1.16949,5.03299c0.79359,1.44795 1.86563,2.59655 3.2161,3.44583c1.36442,0.83535 2.91676,1.25303 4.65709,1.25303z" fill="#bde7ff"/></g></g></g></svg>
